# xmcd CD database file
#
# Track frame offsets:
#	150
#	9608
#	21528
#	26175
#	52325
#	89820
#	93508
#	128828
#	169563
#	211525
#	288185
#	292615
#	307453
#
# Disc length: 4144 seconds
#
# Revision: 0
# Processed by: cddbd v1.5PL3 Copyright (c) Steve Scherf et al.
# Submitted via: CDex 1.51
#
DISCID=bd102e0d
DTITLE=君のぞらじお - 君のぞらじおCD 1
DYEAR=2004
DGENRE=Anime
TTITLE0=はじまりますよー
TTITLE1=オープニング
TTITLE2=コマーシャル♪
TTITLE3=ベストセレクション♪ 栗林みな実
TTITLE4=ベストセレクション♪ 石橋朋子
TTITLE5=コマーシャル♪♪
TTITLE6=君が望む永遠ラジオドラマ「A.I.」
TTITLE7=ベストセレクション♪ 谷山紀章
TTITLE8=ベストセレクション♪ ジョイまっくす
TTITLE9=すかてんらじお #01
TTITLE10=コマーシャル♪♪♪
TTITLE11=エンディング
TTITLE12=お・ま・け
EXTD=YEAR: 2004
EXTT0=
EXTT1=
EXTT2=
EXTT3=
EXTT4=
EXTT5=
EXTT6=
EXTT7=
EXTT8=
EXTT9=
EXTT10=
EXTT11=
EXTT12=
PLAYORDER=
